<svg width="20" height="20" viewBox="0 0 20 20" fill="none" xmlns="http://www.w3.org/2000/svg">
<path d="M17.5 13.3334H5.83332C5.61231 13.3334 5.40035 13.2456 5.24407 13.0893C5.08779 12.9331 4.99999 12.7211 4.99999 12.5001C4.99999 12.2791 5.08779 12.0671 5.24407 11.9108C5.40035 11.7545 5.61231 11.6667 5.83332 11.6667H14.5333C15.0905 11.6668 15.6318 11.4807 16.0711 11.1379C16.5105 10.7952 16.8227 10.3155 16.9583 9.77508L18.3333 4.36675C18.3645 4.24375 18.3672 4.11526 18.3413 3.99106C18.3153 3.86686 18.2612 3.75023 18.1833 3.65008C18.1023 3.54736 17.9982 3.46516 17.8795 3.41015C17.7608 3.35513 17.6308 3.32885 17.5 3.33341H5.63332C5.4614 2.84712 5.14326 2.42591 4.72254 2.12753C4.30182 1.82915 3.79911 1.6682 3.28332 1.66675H2.49999C2.27898 1.66675 2.06701 1.75455 1.91073 1.91083C1.75445 2.06711 1.66666 2.27907 1.66666 2.50008C1.66666 2.7211 1.75445 2.93306 1.91073 3.08934C2.06701 3.24562 2.27898 3.33341 2.49999 3.33341H3.28332C3.47369 3.32787 3.6602 3.38769 3.81183 3.50293C3.96345 3.61816 4.07103 3.78185 4.11666 3.96675L4.16666 4.36675L5.60832 10.0001C4.94528 10.0299 4.32125 10.3219 3.87351 10.8119C3.42576 11.3018 3.19099 11.9495 3.22082 12.6126C3.25066 13.2756 3.54267 13.8997 4.03261 14.3474C4.52254 14.7951 5.17028 15.0299 5.83332 15.0001H5.98332C5.84627 15.3777 5.80223 15.7828 5.85493 16.181C5.90763 16.5792 6.05553 16.9589 6.28609 17.2879C6.51665 17.6168 6.82309 17.8854 7.17945 18.0708C7.53582 18.2562 7.93161 18.353 8.33332 18.353C8.73504 18.353 9.13083 18.2562 9.4872 18.0708C9.84356 17.8854 10.15 17.6168 10.3806 17.2879C10.6111 16.9589 10.759 16.5792 10.8117 16.181C10.8644 15.7828 10.8204 15.3777 10.6833 15.0001H12.65C12.5129 15.3777 12.4689 15.7828 12.5216 16.181C12.5743 16.5792 12.7222 16.9589 12.9528 17.2879C13.1833 17.6168 13.4898 17.8854 13.8461 18.0708C14.2025 18.2562 14.5983 18.353 15 18.353C15.4017 18.353 15.7975 18.2562 16.1539 18.0708C16.5102 17.8854 16.8167 17.6168 17.0472 17.2879C17.2778 16.9589 17.4257 16.5792 17.4784 16.181C17.5311 15.7828 17.487 15.3777 17.35 15.0001H17.5C17.721 15.0001 17.933 14.9123 18.0892 14.756C18.2455 14.5997 18.3333 14.3878 18.3333 14.1667C18.3333 13.9457 18.2455 13.7338 18.0892 13.5775C17.933 13.4212 17.721 13.3334 17.5 13.3334ZM16.4333 5.00008L15.3417 9.36675C15.296 9.55165 15.1885 9.71534 15.0368 9.83057C14.8852 9.9458 14.6987 10.0056 14.5083 10.0001H7.31666L6.06666 5.00008H16.4333ZM8.33332 16.6667C8.16851 16.6667 8.00739 16.6179 7.87035 16.5263C7.73331 16.4347 7.6265 16.3046 7.56342 16.1523C7.50035 16 7.48385 15.8325 7.516 15.6708C7.54816 15.5092 7.62752 15.3607 7.74407 15.2442C7.86061 15.1276 8.0091 15.0482 8.17075 15.0161C8.3324 14.9839 8.49995 15.0004 8.65223 15.0635C8.8045 15.1266 8.93465 15.2334 9.02621 15.3704C9.11778 15.5075 9.16666 15.6686 9.16666 15.8334C9.16666 16.0544 9.07886 16.2664 8.92258 16.4227C8.7663 16.579 8.55434 16.6667 8.33332 16.6667ZM15 16.6667C14.8352 16.6667 14.6741 16.6179 14.537 16.5263C14.4 16.4347 14.2932 16.3046 14.2301 16.1523C14.167 16 14.1505 15.8325 14.1827 15.6708C14.2148 15.5092 14.2942 15.3607 14.4107 15.2442C14.5273 15.1276 14.6758 15.0482 14.8374 15.0161C14.9991 14.9839 15.1666 15.0004 15.3189 15.0635C15.4712 15.1266 15.6013 15.2334 15.6929 15.3704C15.7845 15.5075 15.8333 15.6686 15.8333 15.8334C15.8333 16.0544 15.7455 16.2664 15.5892 16.4227C15.433 16.579 15.221 16.6667 15 16.6667Z" fill="#DCD7D7"/>
</svg>
