<svg width="20" height="18" viewBox="0 0 20 18" fill="none" xmlns="http://www.w3.org/2000/svg">
<path d="M13.0917 9.07849C13.9087 8.52753 14.505 7.772 14.7977 6.91702C15.0904 6.06203 15.0649 5.1501 14.7248 4.30811C14.3847 3.46611 13.7469 2.73591 12.9001 2.2191C12.0532 1.70229 11.0395 1.42456 10 1.42456C8.96045 1.42456 7.94676 1.70229 7.09994 2.2191C6.25312 2.73591 5.61528 3.46611 5.27517 4.30811C4.93506 5.1501 4.90959 6.06203 5.2023 6.91702C5.49501 7.772 6.09134 8.52753 6.90833 9.07849C5.5084 9.55923 4.2869 10.3566 3.37407 11.3856C2.46125 12.4145 1.8913 13.6366 1.725 14.9213C1.71296 15.0151 1.72259 15.1101 1.75335 15.2007C1.78411 15.2913 1.83539 15.3758 1.90426 15.4494C2.04335 15.5981 2.24565 15.6934 2.46666 15.7142C2.68768 15.735 2.9093 15.6798 3.08277 15.5605C3.25624 15.4413 3.36735 15.2679 3.39166 15.0785C3.57465 13.6822 4.3514 12.3926 5.57351 11.4562C6.79562 10.5198 8.37741 10.0021 10.0167 10.0021C11.6559 10.0021 13.2377 10.5198 14.4598 11.4562C15.6819 12.3926 16.4587 13.6822 16.6417 15.0785C16.6643 15.254 16.762 15.4161 16.9159 15.5335C17.0698 15.6509 17.269 15.7153 17.475 15.7142H17.5667C17.7851 15.6927 17.9848 15.598 18.1221 15.4508C18.2595 15.3036 18.3234 15.1159 18.3 14.9285C18.1329 13.6401 17.5599 12.4149 16.6424 11.3843C15.7249 10.3538 14.4974 9.55669 13.0917 9.07849V9.07849ZM10 8.57134C9.34073 8.57134 8.69626 8.40377 8.1481 8.08983C7.59993 7.77588 7.17269 7.32966 6.9204 6.80758C6.66811 6.28551 6.6021 5.71103 6.73071 5.1568C6.85933 4.60257 7.1768 4.09347 7.64297 3.6939C8.10915 3.29432 8.70309 3.0222 9.3497 2.91196C9.9963 2.80171 10.6665 2.85829 11.2756 3.07454C11.8847 3.29079 12.4053 3.657 12.7716 4.12686C13.1378 4.59671 13.3333 5.14911 13.3333 5.7142C13.3333 6.47196 12.9821 7.19869 12.357 7.73451C11.7319 8.27032 10.8841 8.57134 10 8.57134Z" fill="#DCD7D7"/>
</svg>
